# xmcd
#
# Track frame offsets: 
#        150
#        14191
#        31513
#        51475
#        71632
#        83973
#        97589
#        119857
#        148645
#        179857
#        202675
#        221620
#        237618
#        261348
#        296712
#
# Disc length: 4186 seconds
#
# Revision: 0
# Processed by: cddbd v1.5.2PL0 Copyright (c) Steve Scherf et al.
# Submitted via: ExactAudioCopy v1.3
#
DISCID=ed10580f
DTITLE=JP Soars - Southbound I-95
DYEAR=2018
DGENRE=Guitar Blues
TTITLE0=Ain't No Dania Beach
TTITLE1=Sure As Hell Ain't Foolin' Me
TTITLE2=Southbound I-95
TTITLE3=Shining Though The Dark
TTITLE4=The Grass Ain't Always Greener
TTITLE5=Arkansas Porch Party
TTITLE6=Satisfy My Soul
TTITLE7=Born In California
TTITLE8=When You Walk Out That Door
TTITLE9=Deep Down In Florida
TTITLE10=Across The Desert
TTITLE11=Dog Catcher
TTITLE12=Troubled Waters
TTITLE13=Go With The Flow
TTITLE14=Sure As Hell Ain't Foolin' Me (Radio Edit)
EXTD=
EXTT0=
EXTT1=
EXTT2=
EXTT3=
EXTT4=
EXTT5=
EXTT6=
EXTT7=
EXTT8=
EXTT9=
EXTT10=
EXTT11=
EXTT12=
EXTT13=
EXTT14=
PLAYORDER=
